<?xml version="1.0" encoding="UTF-8"?>
<svg width="177px" height="33px" viewBox="0 0 177 33" version="1.1" xmlns="http://www.w3.org/2000/svg" xmlns:xlink="http://www.w3.org/1999/xlink">
    <title>Logo</title>
    <g id="Home" stroke="none" stroke-width="1" fill="none" fill-rule="evenodd">
        <g id="Desktop" transform="translate(-422.000000, -43.000000)">
            <g id="Logo" transform="translate(424.000000, 43.000000)">
                <g id="cash-outline(1)" transform="translate(0.000000, 2.000000)" stroke="#5A9566" stroke-linejoin="round" stroke-width="2.64285714">
                    <rect id="Rectangle" transform="translate(18.500000, 10.500000) rotate(180.000000) translate(-18.500000, -10.500000) " x="0" y="0" width="37" height="21" rx="1.32142857"></rect>
                    <path d="M3,25.05 L35,25.05 M5.66666667,28.9515817 L32.3333333,28.9515817" id="Shape" stroke-linecap="round"></path>
                    <circle id="Oval" stroke-linecap="round" cx="18.5" cy="10.5" r="6.5"></circle>
                    <path d="M37,6.5625 C33.3509758,6.5625 30.3928571,3.62436867 30.3928571,1.33226763e-15 M0,6.5625 C3.64902424,6.5625 6.60714286,3.62436867 6.60714286,0 M37,14.4375 C33.3509758,14.4375 30.3928571,17.3756313 30.3928571,21 M0,14.4375 C3.64902424,14.4375 6.60714286,17.3756313 6.60714286,21" id="Shape" stroke-linecap="round"></path>
                </g>
                <g id="Gig-Finder" transform="translate(58.429688, 7.765625)" fill="#5A9566" fill-rule="nonzero">
                    <path d="M7.734375,8.93554688 L14.1269531,8.93554688 L14.1269531,17.53125 C13.2285156,17.8320312 12.2998047,18.0634766 11.3408203,18.2255859 C10.3818359,18.3876953 9.30273438,18.46875 8.10351562,18.46875 C6.36132812,18.46875 4.88769531,18.1230469 3.68261719,17.4316406 C2.47753906,16.7402344 1.5625,15.7373047 0.9375,14.4228516 C0.3125,13.1083984 0,11.5195312 0,9.65625 C0,7.87109375 0.34765625,6.3203125 1.04296875,5.00390625 C1.73828125,3.6875 2.75,2.66699219 4.078125,1.94238281 C5.40625,1.21777344 7.015625,0.85546875 8.90625,0.85546875 C9.8359375,0.85546875 10.7353516,0.948242188 11.6044922,1.13378906 C12.4736328,1.31933594 13.2714844,1.5703125 13.9980469,1.88671875 L13.0136719,4.20703125 C12.4355469,3.9375 11.7880859,3.70898438 11.0712891,3.52148438 C10.3544922,3.33398438 9.609375,3.24023438 8.8359375,3.24023438 C7.609375,3.24023438 6.55273438,3.50585938 5.66601562,4.03710938 C4.77929688,4.56835938 4.09765625,5.31542969 3.62109375,6.27832031 C3.14453125,7.24121094 2.90625,8.37890625 2.90625,9.69140625 C2.90625,10.9648438 3.09765625,12.0820312 3.48046875,13.0429688 C3.86328125,14.0039062 4.46289062,14.7529297 5.27929688,15.2900391 C6.09570312,15.8271484 7.15234375,16.0957031 8.44921875,16.0957031 C9.09375,16.0957031 9.64355469,16.0605469 10.0986328,15.9902344 C10.5537109,15.9199219 10.9726562,15.8398438 11.3554688,15.75 L11.3554688,11.3378906 L7.734375,11.3378906 L7.734375,8.93554688 Z" id="G"></path>
                    <path d="M20.7070312,5.26171875 L20.7070312,18.234375 L17.9472656,18.234375 L17.9472656,5.26171875 L20.7070312,5.26171875 Z M19.3417969,0.29296875 C19.7675781,0.29296875 20.1337891,0.40625 20.4404297,0.6328125 C20.7470703,0.859375 20.9003906,1.25 20.9003906,1.8046875 C20.9003906,2.3515625 20.7470703,2.74121094 20.4404297,2.97363281 C20.1337891,3.20605469 19.7675781,3.32226562 19.3417969,3.32226562 C18.9042969,3.32226562 18.5351562,3.20605469 18.234375,2.97363281 C17.9335938,2.74121094 17.7832031,2.3515625 17.7832031,1.8046875 C17.7832031,1.25 17.9335938,0.859375 18.234375,0.6328125 C18.5351562,0.40625 18.9042969,0.29296875 19.3417969,0.29296875 Z" id="i"></path>
                    <path d="M28.3476562,24 C26.5898438,24 25.2412109,23.6835938 24.3017578,23.0507812 C23.3623047,22.4179688 22.8925781,21.53125 22.8925781,20.390625 C22.8925781,19.59375 23.1435547,18.9199219 23.6455078,18.3691406 C24.1474609,17.8183594 24.8632812,17.4394531 25.7929688,17.2324219 C25.4414062,17.0761719 25.1376953,16.8310547 24.8818359,16.4970703 C24.6259766,16.1630859 24.4980469,15.7949219 24.4980469,15.3925781 C24.4980469,14.9082031 24.6357422,14.4941406 24.9111328,14.1503906 C25.1865234,13.8066406 25.5957031,13.4726562 26.1386719,13.1484375 C25.4589844,12.8632812 24.9140625,12.3935547 24.5039062,11.7392578 C24.09375,11.0849609 23.8886719,10.3183594 23.8886719,9.43945312 C23.8886719,8.50195312 24.0888672,7.703125 24.4892578,7.04296875 C24.8896484,6.3828125 25.4716797,5.87890625 26.2353516,5.53125 C26.9990234,5.18359375 27.9257812,5.00976562 29.015625,5.00976562 C29.25,5.00976562 29.5048828,5.02246094 29.7802734,5.04785156 C30.0556641,5.07324219 30.3134766,5.10449219 30.5537109,5.14160156 C30.7939453,5.17871094 30.9765625,5.21484375 31.1015625,5.25 L35.5898438,5.25 L35.5898438,6.78515625 L33.3808594,7.1953125 C33.5917969,7.4921875 33.7597656,7.83007812 33.8847656,8.20898438 C34.0097656,8.58789062 34.0722656,9 34.0722656,9.4453125 C34.0722656,10.7890625 33.6103516,11.8457031 32.6865234,12.6152344 C31.7626953,13.3847656 30.4863281,13.7695312 28.8574219,13.7695312 C28.4707031,13.7578125 28.0917969,13.7265625 27.7207031,13.6757812 C27.4394531,13.8515625 27.2255859,14.0429688 27.0791016,14.25 C26.9326172,14.4570312 26.859375,14.6875 26.859375,14.9414062 C26.859375,15.1523438 26.9335938,15.3232422 27.0820312,15.4541016 C27.2304688,15.5849609 27.4501953,15.6816406 27.7412109,15.7441406 C28.0322266,15.8066406 28.3886719,15.8378906 28.8105469,15.8378906 L31.0546875,15.8378906 C32.4726562,15.8378906 33.5566406,16.1386719 34.3066406,16.7402344 C35.0566406,17.3417969 35.4316406,18.2226562 35.4316406,19.3828125 C35.4316406,20.859375 34.8232422,21.9980469 33.6064453,22.7988281 C32.3896484,23.5996094 30.6367188,24 28.3476562,24 Z M28.453125,22.0722656 C29.4101562,22.0722656 30.2167969,21.9785156 30.8730469,21.7910156 C31.5292969,21.6035156 32.0263672,21.3359375 32.3642578,20.9882812 C32.7021484,20.640625 32.8710938,20.2265625 32.8710938,19.7460938 C32.8710938,19.3242188 32.7646484,19 32.5517578,18.7734375 C32.3388672,18.546875 32.0224609,18.3916016 31.6025391,18.3076172 C31.1826172,18.2236328 30.6582031,18.1816406 30.0292969,18.1816406 L27.9902344,18.1816406 C27.4824219,18.1816406 27.0341797,18.2617188 26.6455078,18.421875 C26.2568359,18.5820312 25.9541016,18.8134766 25.7373047,19.1162109 C25.5205078,19.4189453 25.4121094,19.7851562 25.4121094,20.2148438 C25.4121094,20.8085938 25.6767578,21.2666016 26.2060547,21.5888672 C26.7353516,21.9111328 27.484375,22.0722656 28.453125,22.0722656 Z M28.9921875,11.9707031 C29.7929688,11.9707031 30.3886719,11.75 30.7792969,11.3085938 C31.1699219,10.8671875 31.3652344,10.2441406 31.3652344,9.43945312 C31.3652344,8.56445312 31.1650391,7.90820312 30.7646484,7.47070312 C30.3642578,7.03320312 29.7695312,6.81445312 28.9804688,6.81445312 C28.2070312,6.81445312 27.6181641,7.03710938 27.2138672,7.48242188 C26.8095703,7.92773438 26.6074219,8.5859375 26.6074219,9.45703125 C26.6074219,10.25 26.8095703,10.8671875 27.2138672,11.3085938 C27.6181641,11.75 28.2109375,11.9707031 28.9921875,11.9707031 Z" id="g"></path>
                    <polygon id="F" points="47.2382812 18.234375 44.4550781 18.234375 44.4550781 1.1015625 54.1347656 1.1015625 54.1347656 3.46875 47.2382812 3.46875 47.2382812 8.81835938 53.6894531 8.81835938 53.6894531 11.1738281 47.2382812 11.1738281"></polygon>
                    <path d="M59.7070312,5.26171875 L59.7070312,18.234375 L56.9472656,18.234375 L56.9472656,5.26171875 L59.7070312,5.26171875 Z M58.3417969,0.29296875 C58.7675781,0.29296875 59.1337891,0.40625 59.4404297,0.6328125 C59.7470703,0.859375 59.9003906,1.25 59.9003906,1.8046875 C59.9003906,2.3515625 59.7470703,2.74121094 59.4404297,2.97363281 C59.1337891,3.20605469 58.7675781,3.32226562 58.3417969,3.32226562 C57.9042969,3.32226562 57.5351562,3.20605469 57.234375,2.97363281 C56.9335938,2.74121094 56.7832031,2.3515625 56.7832031,1.8046875 C56.7832031,1.25 56.9335938,0.859375 57.234375,0.6328125 C57.5351562,0.40625 57.9042969,0.29296875 58.3417969,0.29296875 Z" id="i"></path>
                    <path d="M70.4003906,5.02148438 C71.8613281,5.02148438 73,5.3984375 73.8164062,6.15234375 C74.6328125,6.90625 75.0410156,8.11523438 75.0410156,9.77929688 L75.0410156,18.234375 L72.2929688,18.234375 L72.2929688,10.2890625 C72.2929688,9.28515625 72.0859375,8.53125 71.671875,8.02734375 C71.2578125,7.5234375 70.6171875,7.27148438 69.75,7.27148438 C68.4921875,7.27148438 67.6191406,7.65820312 67.1308594,8.43164062 C66.6425781,9.20507812 66.3984375,10.3242188 66.3984375,11.7890625 L66.3984375,18.234375 L63.6386719,18.234375 L63.6386719,5.26171875 L65.7890625,5.26171875 L66.1757812,7.02539062 L66.328125,7.02539062 C66.6054688,6.57226562 66.9541016,6.19824219 67.3740234,5.90332031 C67.7939453,5.60839844 68.2626953,5.38769531 68.7802734,5.24121094 C69.2978516,5.09472656 69.8378906,5.02148438 70.4003906,5.02148438 Z" id="n"></path>
                    <path d="M83.2441406,18.46875 C81.7011719,18.46875 80.4628906,17.9052734 79.5292969,16.7783203 C78.5957031,15.6513672 78.1289062,13.9863281 78.1289062,11.7832031 C78.1289062,9.55664062 78.6035156,7.87304688 79.5527344,6.73242188 C80.5019531,5.59179688 81.7539062,5.02148438 83.3085938,5.02148438 C83.9609375,5.02148438 84.5332031,5.109375 85.0253906,5.28515625 C85.5175781,5.4609375 85.9423828,5.69628906 86.2998047,5.99121094 C86.6572266,6.28613281 86.9589844,6.61914062 87.2050781,6.99023437 L87.3339844,6.99023437 C87.2949219,6.74414062 87.2509766,6.39355469 87.2021484,5.93847656 C87.1533203,5.48339844 87.1289062,5.06054688 87.1289062,4.66992188 L87.1289062,0 L89.8945312,0 L89.8945312,18.234375 L87.7382812,18.234375 L87.2460938,16.4707031 L87.1289062,16.4707031 C86.8945312,16.8417969 86.5996094,17.1787109 86.2441406,17.4814453 C85.8886719,17.7841797 85.4658203,18.0244141 84.9755859,18.2021484 C84.4853516,18.3798828 83.9082031,18.46875 83.2441406,18.46875 Z M84.0234375,16.2363281 C85.1992188,16.2363281 86.0302734,15.8955078 86.5166016,15.2138672 C87.0029297,14.5322266 87.2519531,13.5136719 87.2636719,12.1582031 L87.2636719,11.7890625 C87.2636719,10.3359375 87.0302734,9.22167969 86.5634766,8.44628906 C86.0966797,7.67089844 85.2402344,7.28320312 83.9941406,7.28320312 C83.0019531,7.28320312 82.2460938,7.68261719 81.7265625,8.48144531 C81.2070312,9.28027344 80.9472656,10.3964844 80.9472656,11.8300781 C80.9472656,13.2597656 81.2070312,14.3515625 81.7265625,15.1054688 C82.2460938,15.859375 83.0117188,16.2363281 84.0234375,16.2363281 Z" id="d"></path>
                    <path d="M98.9941406,5.02148438 C100.146484,5.02148438 101.136719,5.25878906 101.964844,5.73339844 C102.792969,6.20800781 103.429688,6.88378906 103.875,7.76074219 C104.320312,8.63769531 104.542969,9.68554688 104.542969,10.9042969 L104.542969,12.375 L95.8828125,12.375 C95.9140625,13.6328125 96.2529297,14.6025391 96.8994141,15.2841797 C97.5458984,15.9658203 98.4511719,16.3066406 99.6152344,16.3066406 C100.439453,16.3066406 101.181641,16.2265625 101.841797,16.0664062 C102.501953,15.90625 103.183594,15.6679688 103.886719,15.3515625 L103.886719,17.5898438 C103.238281,17.8945312 102.578125,18.1171875 101.90625,18.2578125 C101.234375,18.3984375 100.429688,18.46875 99.4921875,18.46875 C98.21875,18.46875 97.0996094,18.2216797 96.1347656,17.7275391 C95.1699219,17.2333984 94.4169922,16.4941406 93.8759766,15.5097656 C93.3349609,14.5253906 93.0644531,13.3027344 93.0644531,11.8417969 C93.0644531,10.3847656 93.3105469,9.1484375 93.8027344,8.1328125 C94.2949219,7.1171875 94.9853516,6.34472656 95.8740234,5.81542969 C96.7626953,5.28613281 97.8027344,5.02148438 98.9941406,5.02148438 Z M98.9941406,7.08984375 C98.1269531,7.08984375 97.4248047,7.37109375 96.8876953,7.93359375 C96.3505859,8.49609375 96.0351562,9.3203125 95.9414062,10.40625 L101.847656,10.40625 C101.839844,9.7578125 101.732422,9.18457031 101.525391,8.68652344 C101.318359,8.18847656 101.006836,7.79785156 100.59082,7.51464844 C100.174805,7.23144531 99.6425781,7.08984375 98.9941406,7.08984375 Z" id="e"></path>
                    <path d="M114.222656,5.02148438 C114.441406,5.02148438 114.680664,5.03320312 114.94043,5.05664062 C115.200195,5.08007812 115.421875,5.11132812 115.605469,5.15039062 L115.347656,7.72851562 C115.183594,7.68164062 114.983398,7.64550781 114.74707,7.62011719 C114.510742,7.59472656 114.296875,7.58203125 114.105469,7.58203125 C113.617188,7.58203125 113.150391,7.66308594 112.705078,7.82519531 C112.259766,7.98730469 111.865234,8.23046875 111.521484,8.5546875 C111.177734,8.87890625 110.907227,9.28320312 110.709961,9.76757812 C110.512695,10.2519531 110.414062,10.8144531 110.414062,11.4550781 L110.414062,18.234375 L107.648438,18.234375 L107.648438,5.26171875 L109.810547,5.26171875 L110.179688,7.546875 L110.308594,7.546875 C110.570312,7.0859375 110.891602,6.6640625 111.272461,6.28125 C111.65332,5.8984375 112.091797,5.59277344 112.587891,5.36425781 C113.083984,5.13574219 113.628906,5.02148438 114.222656,5.02148438 Z" id="r"></path>
                </g>
            </g>
        </g>
    </g>
</svg>
